<?xml version="1.0" encoding="utf-8"?>
<!-- Generator: Adobe Illustrator 21.1.0, SVG Export Plug-In . SVG Version: 6.00 Build 0)  -->
<svg version="1.1" id="Layer_1" xmlns="http://www.w3.org/2000/svg" xmlns:xlink="http://www.w3.org/1999/xlink" x="0px" y="0px"
	 viewBox="0 0 469 62" style="enable-background:new 0 0 469 62;" xml:space="preserve">
<style type="text/css">
	.st0{fill:#FFFFFF;}
</style>
<g>
	<rect x="120" y="28" class="st0" width="14" height="9"/>
	<polygon class="st0" points="135,7 107,7 115.1,16 135,16 	"/>
	<polygon class="st0" points="135,58 107,58 115.1,49 135,49 	"/>
</g>
<polygon class="st0" points="115,22.8 115,42.7 106,52 106,13 "/>
<polygon class="st0" points="76,43 76,43 76,7 67,7 67,52 76,43 "/>
<polygon class="st0" points="262,18 252,7 252,58 262,58 262,21.4 262,21.8 "/>
<polygon class="st0" points="287,7 287,33 287,33 296,39.4 296,7 "/>
<polygon class="st0" points="267,38.5 295.6,58.6 295.6,46.5 267.3,25.4 267,25.4 "/>
<polygon class="st0" points="31.3,19.5 26.3,7 26.3,7 31.2,19 31.3,19 46.5,58 57.3,58 36.8,7 26.3,7 "/>
<polygon class="st0" points="15.6,58 28.4,25 28.4,25 23.3,14.2 5.3,58 "/>
<polygon class="st0" points="215.3,19.5 210.3,7 210.3,7 215.2,19 215.3,19 230.5,58 241.3,58 220.8,7 210.3,7 "/>
<polygon class="st0" points="199.6,58 212.4,25 212.4,25 207.3,14.2 189.3,58 "/>
<polygon class="st0" points="437.3,19.5 432.3,7 432.3,7 437.2,19 437.3,19 452.5,58 463.3,58 442.8,7 432.3,7 "/>
<polygon class="st0" points="421.6,58 434.4,25 434.4,25 429.3,14.2 411.3,58 "/>
<polygon class="st0" points="316,17.8 316,47.4 306,56 306,8 "/>
<path class="st0" d="M324.9,6h-13.1l8,8h4.5c10.9,0,17.1,6.9,17.1,17.9c0,11.2-6.2,18.1-17.1,18.1l-3.6-0.1l-8.4,8.1h12.7
	c16.6,0,27-9.8,27-26C351.9,15.8,341.6,6,324.9,6z"/>
<path class="st0" d="M401,45.9c-0.6-6.1-3.6-9.5-9.5-10.6c6.3-0.8,11.4-5.5,11.4-13.3c0-9.6-6.5-16-19.7-16h-15l9.5,9h4.1
	c7.5,0,10.9,2.9,10.9,8.1c0,5.6-3.4,7.9-10.9,7.9l-3.8,0.1v7.9l4-0.1c5.9,0,8.5,2.6,8.9,8.4c0.4,5.7,1.1,9.6,2.1,10.6h10.5
	C401.9,56,401.6,53.6,401,45.9z"/>
<polygon class="st0" points="369.9,15 360,6 360,58 370,58 370,20.4 370,20.8 "/>
<g>
	<polygon class="st0" points="184,37.4 184,0.8 174,6 174,32.9 	"/>
</g>
<path class="st0" d="M183.7,43l-9.7-5v0.9c0,7.5-2.9,11.2-9.2,11.2c-6.3,0-9.5-4.3-10-11.8l-9.8,0.4c0.3,13,7.7,20,19.7,20
	c10.5,0,17.7-5,19.1-15.6C183.7,43.1,183.7,43,183.7,43z"/>
<polygon class="st0" points="96,58 68,58 76.1,49 96,49 "/>
</svg>
